<svg version="1.0" xmlns="http://www.w3.org/2000/svg"
 width="110.000000pt" height="112.000000pt" viewBox="0 0 110.000000 112.000000"
 preserveAspectRatio="xMidYMid meet">

<g transform="translate(0.000000,112.000000) scale(0.100000,-0.100000)"
fill="#383838" stroke="none">
<path d="M470 1097 c-141 -74 -84 -292 76 -289 89 1 161 82 151 168 -8 77 -80
144 -154 144 -17 0 -49 -10 -73 -23z m156 -51 c28 -28 34 -42 34 -75 0 -85
-56 -138 -133 -128 -71 10 -120 82 -103 151 3 14 20 38 37 55 26 26 38 31 81
31 44 0 54 -4 84 -34z"/>
<path d="M295 1080 c-3 -5 -3 -14 0 -20 4 -6 -15 -10 -50 -10 -48 0 -56 -3
-53 -17 2 -14 15 -19 55 -21 39 -2 51 -6 47 -16 -10 -25 17 -28 42 -5 30 28
30 49 1 77 -26 25 -33 27 -42 12z"/>
<path d="M274 907 c-107 -79 -172 -194 -181 -322 -5 -63 -3 -75 9 -75 12 0 18
15 22 58 16 134 74 239 167 306 32 23 58 46 58 53 2 26 -20 21 -75 -20z"/>
<path d="M736 943 c-14 -14 -4 -29 29 -47 85 -46 176 -183 190 -287 5 -37 11
-49 24 -49 16 0 17 6 9 56 -14 88 -59 177 -125 243 -59 58 -115 96 -127 84z"/>
<path d="M1010 841 c0 -42 -3 -49 -22 -54 -22 -6 -22 -6 7 -37 35 -36 45 -37
74 -6 24 25 20 52 -5 42 -11 -4 -14 7 -14 49 0 48 -2 55 -20 55 -17 0 -20 -7
-20 -49z"/>
<path d="M485 750 c-4 -6 -2 -17 5 -25 9 -10 7 -15 -8 -19 -10 -3 -34 -22 -53
-42 -32 -33 -34 -39 -34 -104 0 -65 2 -72 32 -102 27 -26 35 -30 45 -19 11 10
10 15 -2 24 -46 35 -62 95 -39 140 28 55 83 91 72 47 -9 -35 22 -22 41 16 17
37 17 37 -10 65 -30 31 -39 35 -49 19z"/>
<path d="M610 680 c0 -5 11 -26 25 -46 29 -42 32 -91 10 -134 -20 -38 -75 -70
-62 -36 3 7 0 19 -6 25 -8 8 -16 3 -29 -17 -24 -37 -23 -64 6 -91 26 -25 50
-20 42 7 -3 11 8 26 33 43 74 52 90 134 41 212 -26 42 -60 63 -60 37z"/>
<path d="M81 374 c-45 -80 -79 -149 -76 -155 8 -12 332 -12 340 1 9 14 -154
300 -170 300 -7 0 -50 -66 -94 -146z m161 -22 c29 -53 55 -100 56 -104 4 -9
-232 -11 -241 -2 -3 3 3 20 13 37 81 143 102 177 110 172 5 -3 33 -49 62 -103z"/>
<path d="M790 365 l0 -156 153 3 152 3 3 153 3 152 -156 0 -155 0 0 -155z
m278 3 l-3 -123 -120 0 -120 0 -3 123 -3 122 126 0 126 0 -3 -122z"/>
<path d="M306 173 c-3 -8 -6 -16 -6 -18 0 -1 30 -16 67 -31 61 -26 79 -29 178
-29 103 0 114 2 178 32 37 18 67 36 67 42 0 21 -20 20 -67 -3 -108 -55 -240
-55 -360 -1 -44 20 -52 21 -57 8z"/>
<path d="M137 142 c-20 -21 -24 -31 -16 -39 6 -6 18 -9 25 -6 11 4 14 -7 14
-46 0 -39 4 -51 15 -51 12 0 15 13 15 56 0 36 4 53 10 49 6 -4 18 -4 27 -1 14
6 12 11 -12 36 -35 37 -44 37 -78 2z"/>
</g>
</svg>
