<svg version="1.0" xmlns="http://www.w3.org/2000/svg"
 width="111.000000pt" height="130.000000pt" viewBox="0 0 111.000000 130.000000"
 preserveAspectRatio="xMidYMid meet" fill="#e4e4e4">

<g transform="translate(0.000000,130.000000) scale(0.100000,-0.100000)"
fill="#383838" stroke="none">
<path d="M544 1287 c-3 -8 -4 -41 -2 -73 2 -44 7 -59 18 -59 12 0 15 14 15 69
0 47 -4 71 -12 73 -7 3 -15 -2 -19 -10z"/>
<path d="M163 1124 c-7 -19 63 -94 88 -94 35 0 31 23 -12 66 -46 47 -66 54
-76 28z"/>
<path d="M881 1096 c-43 -44 -47 -66 -12 -66 22 0 94 76 88 93 -8 25 -34 16
-76 -27z"/>
<path d="M443 1082 c-100 -36 -171 -101 -216 -199 -18 -39 -22 -66 -22 -143 0
-87 3 -100 32 -156 29 -55 121 -154 144 -154 5 0 9 -28 9 -63 0 -36 5 -68 12
-75 17 -17 299 -17 316 0 7 7 12 39 12 75 0 35 4 63 9 63 25 0 113 97 143 158
30 60 33 75 33 157 0 78 -4 97 -28 147 -36 73 -101 139 -174 174 -74 37 -193
44 -270 16z m255 -63 c224 -112 229 -416 10 -552 -26 -16 -28 -23 -28 -77 l0
-60 -120 0 -120 0 0 59 c0 57 -1 60 -35 81 -55 34 -122 116 -141 172 -12 36
-15 71 -12 122 8 118 64 203 170 256 52 26 72 30 138 30 66 0 86 -4 138 -31z"/>
<path d="M547 1004 c-16 -16 -7 -44 14 -44 102 0 195 -87 214 -197 5 -33 11
-43 26 -43 16 0 19 7 19 43 -1 81 -59 171 -139 211 -50 25 -122 41 -134 30z"/>
<path d="M15 757 c-31 -23 -8 -37 60 -37 66 0 85 10 65 35 -16 19 -100 20
-125 2z"/>
<path d="M981 761 c-8 -5 -11 -16 -8 -25 5 -12 21 -16 72 -16 57 0 65 2 65 19
0 10 -7 22 -16 25 -23 9 -97 7 -113 -3z"/>
<path d="M200 415 c-41 -42 -43 -46 -28 -62 16 -15 20 -13 64 30 39 39 44 49
34 62 -18 21 -21 20 -70 -30z"/>
<path d="M846 444 c-4 -11 9 -31 39 -62 43 -42 47 -44 63 -29 15 16 13 20 -28
62 -47 48 -64 55 -74 29z"/>
<path d="M400 225 c-25 -30 0 -35 160 -35 160 0 185 5 160 35 -18 22 -302 22
-320 0z"/>
<path d="M394 125 c-12 -31 7 -35 166 -35 135 0 159 2 164 16 3 9 4 20 0 25
-3 5 -77 9 -165 9 -130 0 -161 -3 -165 -15z"/>
<path d="M445 29 c-15 -23 15 -30 121 -27 89 2 109 6 109 18 0 12 -20 16 -112
18 -74 2 -114 -1 -118 -9z"/>
</g>
</svg>
