<svg version="1.0" xmlns="http://www.w3.org/2000/svg"
 width="110.000000pt" height="110.000000pt" viewBox="0 0 110.000000 110.000000"
 preserveAspectRatio="xMidYMid meet">

<g transform="translate(0.000000,110.000000) scale(0.100000,-0.100000)"
fill="#383838" stroke="none">
<path d="M321 1015 c-100 -28 -192 -101 -239 -190 -23 -43 -27 -62 -27 -140 0
-97 18 -149 73 -208 22 -23 24 -31 16 -54 -5 -15 -28 -40 -52 -56 -121 -81 35
-116 194 -43 45 21 72 26 134 26 192 0 340 100 387 259 20 71 12 138 -27 217
-58 119 -178 193 -323 200 -54 3 -101 -1 -136 -11z m244 -53 c170 -65 251
-238 181 -387 -55 -118 -210 -198 -352 -181 -44 5 -61 2 -116 -24 -35 -16 -86
-33 -113 -36 l-50 -7 28 22 c30 25 57 70 57 96 0 10 -18 37 -40 63 -150 169
-35 430 209 472 58 10 144 2 196 -18z"/>
<path d="M250 810 c0 -19 7 -20 185 -20 178 0 185 1 185 20 0 19 -7 20 -185
20 -178 0 -185 -1 -185 -20z"/>
<path d="M250 700 c0 -19 7 -20 185 -20 178 0 185 1 185 20 0 19 -7 20 -185
20 -178 0 -185 -1 -185 -20z"/>
<path d="M250 590 c0 -19 7 -20 130 -20 123 0 130 1 130 20 0 19 -7 20 -130
20 -123 0 -130 -1 -130 -20z"/>
<path d="M856 623 c-17 -17 0 -41 47 -68 104 -60 139 -174 83 -269 -14 -24
-38 -53 -52 -63 -26 -19 -26 -20 -10 -51 9 -17 29 -38 44 -46 l27 -15 -45 0
c-48 -1 -116 25 -139 53 -11 13 -24 15 -62 10 -102 -14 -249 32 -302 95 -25
30 -77 52 -77 33 0 -5 19 -30 41 -56 68 -77 166 -116 296 -116 60 0 78 -4 108
-24 64 -44 192 -58 231 -25 23 19 16 37 -25 63 -22 14 -42 30 -45 35 -4 6 9
31 28 56 62 80 72 160 30 243 -14 28 -41 65 -60 81 -40 36 -109 73 -118 64z"/>
<path d="M780 460 c-10 -19 -8 -20 35 -20 38 0 45 3 45 20 0 16 -7 20 -35 20
-24 0 -37 -6 -45 -20z"/>
<path d="M635 349 l-40 -18 133 -1 c125 0 132 1 132 20 0 19 -6 20 -92 19 -69
0 -103 -5 -133 -20z"/>
</g>
</svg>
