<svg version="1.0" xmlns="http://www.w3.org/2000/svg"
 width="198.000000pt" height="198.000000pt" viewBox="0 0 198.000000 198.000000"
 preserveAspectRatio="xMidYMid meet">

<g transform="translate(0.000000,198.000000) scale(0.100000,-0.100000)"
fill="#00a2ff" stroke="none">
<path d="M865 1965 c-222 -31 -395 -116 -557 -273 -130 -126 -204 -247 -256
-417 -79 -258 -56 -506 69 -746 251 -480 850 -666 1329 -412 235 124 408 333
483 583 36 119 51 237 44 344 -32 483 -397 865 -882 925 -106 13 -113 13 -230
-4z m220 -283 c0 -33 4 -44 19 -48 19 -6 24 -2 59 48 11 16 17 15 70 -18 l57
-36 -21 -38 c-18 -32 -20 -42 -10 -54 12 -14 18 -13 53 5 22 11 41 19 42 17 1
-2 17 -29 34 -60 l32 -57 -39 -22 c-52 -29 -46 -55 15 -64 l44 -6 0 -55 0 -54
-130 0 -130 0 0 53 c0 60 -21 102 -72 140 -117 90 -293 -12 -276 -159 l4 -34
-128 0 -128 0 0 65 0 65 45 0 c40 0 45 2 45 23 0 15 -11 29 -30 40 -16 10 -30
23 -30 29 0 11 59 108 66 108 2 0 19 -7 38 -17 28 -13 38 -14 50 -4 14 12 13
17 -4 52 l-20 39 52 30 c29 16 58 30 64 30 6 0 17 -14 24 -30 15 -36 23 -42
44 -34 9 4 16 18 16 34 0 56 7 61 79 58 l66 -3 0 -43z m353 -549 c-6 -81 -34
-158 -90 -244 -23 -35 -54 -88 -70 -118 l-28 -53 0 -229 0 -229 -190 0 -190 0
0 134 0 134 -125 3 c-172 5 -170 3 -170 189 l0 140 -62 0 c-35 0 -63 3 -63 8
0 4 28 80 62 169 l63 162 434 1 433 0 -4 -67z"/>
<path d="M980 1652 c0 -38 -1 -39 -46 -49 -46 -11 -46 -11 -66 23 -23 39 -21
39 -58 17 l-29 -16 19 -37 19 -37 -32 -31 -32 -32 -33 20 c-18 11 -35 20 -37
20 -2 0 -12 -14 -21 -32 -13 -26 -14 -32 -3 -39 48 -27 51 -33 40 -77 -11 -40
-13 -42 -51 -42 -39 0 -40 -1 -40 -35 l0 -35 94 0 93 0 5 44 c13 113 111 193
223 184 98 -8 175 -84 191 -186 l6 -43 92 3 c85 3 91 4 94 25 3 19 -2 22 -40
25 -42 3 -43 4 -51 47 -7 34 -6 46 5 52 49 28 51 33 34 68 l-17 32 -35 -22
c-19 -12 -36 -20 -37 -18 -1 2 -15 18 -31 36 l-29 32 20 34 21 34 -31 18 c-30
18 -31 18 -48 -4 -10 -12 -19 -27 -21 -33 -3 -9 -16 -8 -51 1 -46 13 -47 15
-47 52 0 38 -1 39 -35 39 -34 0 -35 -1 -35 -38z"/>
<path d="M547 1033 l-55 -138 56 -3 57 -3 0 -144 c0 -188 -8 -179 170 -183
l135 -4 0 -134 0 -134 155 0 155 0 0 214 c0 237 3 250 73 359 81 125 117 209
117 274 l0 33 -404 0 -404 0 -55 -137z"/>
</g>
</svg>
