<svg version="1.0" xmlns="http://www.w3.org/2000/svg"
 width="128.000000pt" height="128.000000pt" viewBox="0 0 128.000000 128.000000"
 preserveAspectRatio="xMidYMid meet">

<g transform="translate(0.000000,128.000000) scale(0.100000,-0.100000)"
fill="#383838" stroke="none">
<path d="M590 1264 c-45 -20 -68 -41 -91 -86 -31 -60 -21 -123 30 -182 12 -14
13 -20 4 -23 -15 -6 -17 -39 -3 -48 6 -3 10 -19 10 -36 l0 -29 105 0 105 0 0
29 c0 17 5 33 10 36 14 9 13 42 -2 47 -8 3 -1 18 18 43 24 32 29 48 29 95 0
47 -5 63 -29 94 -29 38 -94 76 -131 75 -11 0 -36 -7 -55 -15z m119 -49 c63
-32 77 -132 26 -185 -14 -14 -25 -34 -25 -43 0 -10 -8 -17 -20 -17 -29 0 -28
70 2 110 l22 30 -21 28 c-27 37 -69 37 -96 0 l-21 -28 22 -30 c30 -40 31 -110
2 -110 -12 0 -20 7 -20 17 0 9 -11 29 -25 43 -50 53 -37 152 24 185 34 19 95
19 130 0z m-41 -102 c5 -18 -28 -29 -38 -12 -5 7 -6 17 -3 22 7 12 35 5 41
-10z m37 -203 c-3 -5 -30 -10 -60 -10 -30 0 -57 5 -60 10 -4 6 18 10 60 10 42
0 64 -4 60 -10z"/>
<path d="M200 868 c-195 -118 -111 -418 118 -418 53 0 63 5 55 26 -3 9 -21 14
-49 14 -121 0 -200 84 -192 202 7 98 82 168 181 168 47 0 95 -18 129 -48 15
-12 20 -13 34 -2 14 12 13 16 -8 33 -45 36 -102 57 -158 57 -45 0 -66 -6 -110
-32z"/>
<path d="M863 870 c-61 -35 -68 -44 -48 -60 11 -9 21 -6 51 17 33 25 46 28
109 28 64 0 76 -3 109 -29 144 -109 65 -336 -116 -336 -32 0 -48 -5 -52 -15
-8 -22 16 -29 82 -22 103 11 191 99 200 201 6 69 -11 118 -57 169 -74 82 -184
101 -278 47z"/>
<path d="M575 789 c-45 -12 -115 -77 -136 -123 -66 -145 45 -316 203 -316 68
0 117 21 165 72 159 165 -10 432 -232 367z m153 -50 c119 -58 135 -232 28
-314 -66 -50 -171 -47 -233 8 -44 39 -63 82 -63 142 0 139 141 225 268 164z"/>
<path d="M97 460 c-14 -12 -40 -49 -56 -83 -25 -52 -31 -79 -36 -169 l-7 -108
136 0 c129 0 136 1 136 20 0 19 -7 20 -110 20 l-110 0 0 84 c0 97 14 138 66
196 20 22 33 44 29 50 -9 15 -19 13 -48 -10z"/>
<path d="M1145 470 c-4 -6 9 -28 29 -50 52 -58 66 -99 66 -197 l0 -85 -120 4
c-120 4 -120 4 -120 -19 0 -23 0 -23 140 -23 l140 0 0 108 c0 101 -2 113 -31
170 -38 77 -87 120 -104 92z"/>
<path d="M418 343 c-62 -63 -78 -112 -78 -235 l0 -108 305 0 305 0 0 108 c0
92 -4 114 -24 157 -26 56 -88 121 -105 111 -17 -11 -13 -27 13 -47 13 -11 36
-42 50 -71 22 -43 26 -66 26 -135 l0 -83 -125 0 c-117 0 -125 1 -116 18 5 9
37 64 71 121 56 96 69 139 37 129 -6 -3 -37 -47 -67 -98 -30 -51 -59 -93 -65
-93 -5 0 -35 42 -65 93 -30 51 -61 95 -67 98 -32 10 -19 -33 37 -129 34 -57
66 -112 71 -121 9 -17 1 -18 -116 -18 l-125 0 0 83 c0 69 4 92 26 135 14 29
37 61 51 72 15 12 23 26 19 35 -8 23 -18 19 -58 -22z"/>
</g>
</svg>
